<svg xmlns="http://www.w3.org/2000/svg" id="Warstwa_1" data-name="Warstwa 1" viewBox="0 0 352.73 99.13"><defs><style>.cls-1{fill:#ffffff;}.cls-2{fill:#ffffff;}</style></defs><path class="cls-1" d="M160.58,68.61a21.84,21.84,0,1,1,.06-38.06.22.22,0,0,0,.3-.09L163,27a26.06,26.06,0,1,0-.11,45.11l-2-3.45A.22.22,0,0,0,160.58,68.61Z"></path><path class="cls-1" d="M155.25,59.33a11.17,11.17,0,1,1-5.37-20.95,11,11,0,0,1,5.41,1.41.22.22,0,0,0,.3-.09l2-3.46a15.29,15.29,0,0,0-8.92-2,15.39,15.39,0,0,0,1.21,30.74,15.31,15.31,0,0,0,7.66-2.06l-2-3.47A.23.23,0,0,0,155.25,59.33Z"></path><path class="cls-1" d="M105.35,60.74V34.37a.22.22,0,0,0-.22-.22h-4V64.94H122V61a.22.22,0,0,0-.22-.21Z"></path><polygon class="cls-1" points="94.65 71.42 94.65 27.71 105.35 27.71 105.35 23.5 90.45 23.5 90.45 23.51 90.45 27.71 90.45 71.42 90.45 75.63 94.65 75.63 126.25 75.63 126.25 71.42 94.65 71.42"></polygon><path class="cls-1" d="M23.53,23.51l19.9,52.11H48L67.86,23.51h-4.3a.25.25,0,0,0-.23.15L45.7,69.71,28.07,23.65a.22.22,0,0,0-.21-.14Z"></path><path class="cls-1" d="M81.57,23.66,63.94,69.71,59.3,57.6,57,63.5v0l4.62,12.09h4.51l19.9-52,0-.06H81.79A.24.24,0,0,0,81.57,23.66Z"></path><path class="cls-1" d="M64,57.62,77,23.51h-4.3a.24.24,0,0,0-.22.15L61.7,51.76Z"></path><path class="cls-1" d="M32.66,23.51l13,34.13,13-34.13H54.41a.22.22,0,0,0-.2.14L45.7,45.79,37.16,23.65a.22.22,0,0,0-.2-.14Z"></path><path class="cls-2" d="M213.67,27.55l-5.42,18.72h-4.42l-3.56-12.83-3.55,12.83H192.3l-5.43-18.72h4.59l3.25,12.61,3.37-12.61h4.39l3.39,12.61,3.23-12.61Z"></path><path class="cls-2" d="M229.13,46.27h-4.37v-7c0-1.63-.21-3-2-3s-2.39,1.52-2.39,3.5v6.57H216V27.55h4.34V32c0,1.35,0,2.82,0,2.82a4.29,4.29,0,0,1,3.93-2.17c3.88,0,4.88,2.47,4.88,5.72Z"></path><path class="cls-2" d="M235,31.35a2.26,2.26,0,1,1,2.47-2.25A2.25,2.25,0,0,1,235,31.35Zm2.17,14.92h-4.34V32.89h4.34Z"></path><path class="cls-2" d="M248.9,36.2h-3V41c0,1.14.16,1.41.37,1.66a1.27,1.27,0,0,0,1,.32,4.15,4.15,0,0,0,1.3-.24l.21,3.39a11.75,11.75,0,0,1-3.09.43,4,4,0,0,1-3.25-1.24c-.68-.79-.95-1.9-.95-3.94V36.2h-1.9V32.92h1.9V29.29H246v3.63h3Z"></path><path class="cls-2" d="M264.31,40.62h-9.52c.19,1.93,1.65,2.8,3.41,2.8a7.5,7.5,0,0,0,4-1.28l1.71,2.25a8.87,8.87,0,0,1-6.35,2.17c-4.12,0-7.13-2.55-7.13-7s3.25-6.94,7.21-6.94,6.7,2.63,6.7,6.54C264.36,39.84,264.31,40.62,264.31,40.62Zm-4-2.46a2.69,2.69,0,0,0-2.74-2.69,2.73,2.73,0,0,0-2.77,2.69Z"></path><path class="cls-2" d="M277.08,46.27h-9.22V27.55h2.63V44h6.59Z"></path><path class="cls-2" d="M290,46.27H287.5l0-1.63a5.34,5.34,0,0,1-4.1,1.92c-2.38,0-4.45-1.49-4.45-4s2.07-3.8,5.05-3.94l3.44-.13V38c0-2-1.33-2.93-3.2-2.93a7.83,7.83,0,0,0-3.88,1.12l-.78-1.74a9.94,9.94,0,0,1,4.83-1.3,5.55,5.55,0,0,1,4.25,1.46c.87.9,1.39,2,1.39,4.18Zm-2.58-6.19-3,.19c-2.09.11-2.93,1-2.93,2.23s.95,2.22,2.66,2.22a4.05,4.05,0,0,0,3.28-1.87Z"></path><path class="cls-2" d="M301.44,46.56a5.2,5.2,0,0,1-4.53-2.33h-.06v2h-2.49V27.55h2.57v7.84H297a5.25,5.25,0,0,1,4.5-2.25c3.77,0,6.21,2.87,6.21,6.67S305.26,46.56,301.44,46.56ZM301,35.25c-2.58,0-4.13,2-4.13,4.53s1.55,4.56,4.13,4.56,4.09-2,4.09-4.56S303.52,35.25,301,35.25Z"></path><path class="cls-2" d="M323,40.43H313a4,4,0,0,0,4.15,4.1A7.12,7.12,0,0,0,321.45,43l1.09,1.49a7.63,7.63,0,0,1-5.67,2c-3.83,0-6.46-2.65-6.46-6.75A6.39,6.39,0,0,1,317,33.14a5.88,5.88,0,0,1,6.1,6.15A11.39,11.39,0,0,1,323,40.43Zm-2.39-1.73A3.71,3.71,0,0,0,316.87,35a3.79,3.79,0,0,0-3.8,3.69Z"></path><path class="cls-2" d="M329.21,46.27h-2.58V27.55h2.58Z"></path><path class="cls-2" d="M203.37,69.52a8.8,8.8,0,0,1-6.84,2.77A9.22,9.22,0,0,1,187,62.63a9.74,9.74,0,0,1,16.22-7.19l-1.12,2.12a7.42,7.42,0,0,0-5.42-2.28c-4,0-7,2.9-7,7.3s3,7.29,7,7.29a7.41,7.41,0,0,0,5.59-2.28Z"></path><path class="cls-2" d="M211.39,72.26a6.72,6.72,0,1,1,6.81-6.7A6.53,6.53,0,0,1,211.39,72.26Zm0-11.31c-2.6,0-4.2,2-4.2,4.53s1.6,4.55,4.2,4.55,4.18-2,4.18-4.55S214,61,211.39,61Z"></path><path class="cls-2" d="M233.31,72h-2.5V69.9h-.05a5.25,5.25,0,0,1-4.53,2.36c-3.83,0-6.27-2.93-6.27-6.76s2.44-6.67,6.21-6.67a5.22,5.22,0,0,1,4.51,2.25h0V53.24h2.58Zm-6.59-11c-2.58,0-4.1,1.95-4.1,4.53s1.52,4.55,4.1,4.55,4.09-2,4.09-4.55S229.29,61,226.72,61Z"></path><path class="cls-2" d="M248.63,66.13H238.7a4,4,0,0,0,4.15,4.09,7.12,7.12,0,0,0,4.26-1.49l1.09,1.49a7.57,7.57,0,0,1-5.67,2c-3.83,0-6.46-2.66-6.46-6.76a6.4,6.4,0,0,1,6.54-6.67,5.88,5.88,0,0,1,6.1,6.16A11.39,11.39,0,0,1,248.63,66.13Zm-2.39-1.74a3.71,3.71,0,0,0-3.71-3.69,3.79,3.79,0,0,0-3.8,3.69Z"></path><path class="cls-2" d="M258.23,61.46h-.11a3.35,3.35,0,0,0-1.41-.27,2.66,2.66,0,0,0-2.11,1.09,5.62,5.62,0,0,0-.79,3.25V72h-2.6V59.08h2.6l0,2h.08A3.37,3.37,0,0,1,257,58.83a3.51,3.51,0,0,1,1.35.22Z"></path><path class="cls-2" d="M267.15,71.12a5.48,5.48,0,0,1-3.58,1.14,6.15,6.15,0,0,1-5-2.31l1.24-1.52a5.29,5.29,0,0,0,3.8,1.85c1.19,0,2.47-.44,2.47-1.85s-2-1.84-2.9-2.14a9.54,9.54,0,0,1-1.77-.68,3.31,3.31,0,0,1-2-3.09c0-2.39,2.06-3.69,4.34-3.69a5.65,5.65,0,0,1,4.39,1.68L267,62.11a4.76,4.76,0,0,0-3.26-1.38c-1.24,0-2.06.54-2.06,1.6s1.25,1.52,2.52,1.93c.71.24,1.2.4,1.74.62a4.91,4.91,0,0,1,1.49.92,3.18,3.18,0,0,1,1,2.39A3.64,3.64,0,0,1,267.15,71.12Z"></path></svg>